<svg width="45" height="44" viewBox="0 0 45 44" fill="none" xmlns="http://www.w3.org/2000/svg">
<path d="M26.534 7.51827L37.0091 18.0194C37.3403 18.3505 37.3403 18.8868 37.0091 19.218L34.9062 21.3208C34.5751 21.652 34.0387 21.652 33.7076 21.3208L32.9051 20.5182L17.7212 35.7021C16.918 36.5181 15.6306 36.5623 14.7549 35.8777L13.2421 37.3904C12.911 37.7216 12.3747 37.7216 12.0435 37.3904L11.2409 36.5879L9.04944 38.7793C8.71827 39.1105 8.18197 39.1105 7.8508 38.7793L7.39871 38.3272L2.75587 42.9701C2.56291 43.1771 2.33312 43.2651 2.10799 43.2559C1.88616 43.2469 1.68214 43.1442 1.53263 42.9947C1.38312 42.8452 1.28043 42.6412 1.2714 42.4193C1.26223 42.1941 1.35031 41.9643 1.55743 41.7713L6.21277 37.1413L5.76097 36.6895C5.4298 36.3583 5.4298 35.822 5.76097 35.4909L7.95242 33.2994L7.14986 32.4969C6.81874 32.1657 6.8187 31.6295 7.14973 31.2984L8.66295 29.7729C7.97803 28.896 8.03524 27.6092 8.83722 26.8071L26.534 7.51827ZM26.534 7.51827C26.3941 7.37842 26.1957 7.27639 25.978 7.26056C25.7559 7.2444 25.5218 7.31886 25.3224 7.51827L23.2325 9.6081C22.9014 9.93927 22.9014 10.4756 23.2325 10.8067L24.0222 11.5964L8.83722 26.8071L26.534 7.51827ZM34.4216 1.20984L32.3317 3.31265C32.0008 3.64383 32.0007 4.1802 32.3317 4.51129L33.1343 5.31384L29.6189 8.82929L29.5128 8.93535L29.6189 9.04142L30.6054 10.0279L30.7114 10.134L30.8175 10.0279L34.32 6.52546L38.0149 10.2204L34.5124 13.7229L34.4064 13.8289L34.5124 13.935L35.4989 14.9215L35.6049 15.0276L35.7111 14.9215L39.2135 11.419L40.0161 12.2216C40.3473 12.5528 40.8836 12.5528 41.2147 12.2216L43.3175 10.1188C43.6487 9.78763 43.6487 9.25131 43.3175 8.92015L35.6203 1.20993L35.6178 1.20751C35.2607 0.865938 34.7522 0.87923 34.4216 1.20984ZM10.0359 28.0057L25.2337 12.8079L31.7194 19.2936L16.5217 34.4914C16.2933 34.7198 15.9619 34.7161 15.7498 34.4939L15.7473 34.4914L10.0359 28.78C9.80755 28.5517 9.81119 28.2203 10.0335 28.0081L10.0359 28.0057ZM20.0935 19.8446C19.8703 19.8446 19.651 19.9394 19.4942 20.0962L11.7969 27.7935C11.4657 28.1247 11.4657 28.661 11.7969 28.9922L15.5222 32.7175C15.8534 33.0487 16.3897 33.0487 16.7209 32.7175L28.1435 21.2948C28.6749 20.7635 28.3069 19.83 27.5427 19.8446H20.0935ZM8.94764 31.8847L9.83901 30.9934L13.5346 34.6889L12.6424 35.5917L8.94764 31.8847ZM7.54671 36.065L9.1503 34.4843L10.0423 35.3763L8.45012 36.9684L7.54671 36.065Z" fill="#281BA4"/>
<path d="M26.534 7.51827L37.0091 18.0194C37.3403 18.3505 37.3403 18.8868 37.0091 19.218L34.9062 21.3208C34.575 21.652 34.0387 21.652 33.7076 21.3208L32.9051 20.5182L17.7212 35.7021C16.918 36.5181 15.6306 36.5623 14.7549 35.8777L13.2421 37.3904C12.911 37.7216 12.3747 37.7216 12.0435 37.3904L11.2409 36.5879L9.04944 38.7793C8.71827 39.1105 8.18197 39.1105 7.8508 38.7793L7.39871 38.3272L2.75587 42.9701C2.56291 43.1771 2.33312 43.2651 2.10799 43.2559C1.88616 43.2469 1.68214 43.1442 1.53263 42.9947C1.38312 42.8452 1.28043 42.6412 1.2714 42.4193C1.26223 42.1941 1.35031 41.9643 1.55743 41.7713L6.21277 37.1413L5.76097 36.6895C5.4298 36.3583 5.4298 35.822 5.76097 35.4909L7.95242 33.2994L7.14986 32.4969C6.81874 32.1657 6.8187 31.6295 7.14973 31.2984L8.66295 29.7729C7.97803 28.896 8.03524 27.6092 8.83722 26.8071M26.534 7.51827L8.83722 26.8071M26.534 7.51827C26.3941 7.37842 26.1957 7.27639 25.978 7.26056C25.7559 7.2444 25.5218 7.31886 25.3224 7.51827L23.2325 9.6081C22.9014 9.93927 22.9014 10.4756 23.2325 10.8067L24.0222 11.5964L8.83722 26.8071M34.4216 1.20984L32.3317 3.31265C32.0008 3.64383 32.0007 4.1802 32.3317 4.51129L33.1343 5.31384L29.6189 8.82929L29.5128 8.93535L29.6189 9.04142L30.6054 10.0279L30.7114 10.134L30.8175 10.0279L34.32 6.52546L38.0149 10.2204L34.5124 13.7229L34.4064 13.8289L34.5124 13.935L35.4989 14.9215L35.6049 15.0276L35.7111 14.9215L39.2135 11.419L40.0161 12.2216C40.3473 12.5528 40.8836 12.5528 41.2147 12.2216L43.3175 10.1188C43.6487 9.78762 43.6487 9.25131 43.3175 8.92015L35.6203 1.20993L35.6178 1.20751C35.2607 0.865938 34.7522 0.87923 34.4216 1.20984ZM10.0359 28.0057L25.2337 12.8079L31.7194 19.2936L16.5217 34.4914C16.2933 34.7198 15.9619 34.7161 15.7498 34.4939L15.7473 34.4914L10.0359 28.78C9.80755 28.5517 9.81119 28.2203 10.0335 28.0081L10.0359 28.0057ZM20.0935 19.8446C19.8704 19.8446 19.651 19.9394 19.4942 20.0962L11.7969 27.7935C11.4657 28.1247 11.4657 28.661 11.7969 28.9922L15.5222 32.7175C15.8534 33.0487 16.3897 33.0487 16.7209 32.7175L28.1435 21.2948C28.6749 20.7635 28.307 19.83 27.5427 19.8446H20.0935ZM8.94764 31.8847L9.83901 30.9934L13.5346 34.6889L12.6424 35.5917L8.94764 31.8847ZM7.54671 36.065L9.1503 34.4843L10.0423 35.3763L8.45012 36.9684L7.54671 36.065Z" stroke="#281BA4" stroke-width="0.3"/>
</svg>
